# xmcd CD database file
#
# Track frame offsets:
#	150
#	18310
#	37298
#	53435
#	84908
#	101204
#	123532
#	141872
#	159273
#	180387
#	198326
#	214223
#	231033
#
# Disc length: 3256 seconds
#
# Revision: 0
# Processed by: cddbd v1.5.1PL2 Copyright (c) Steve Scherf et al.
# Submitted via: CDex 1.51
#
DISCID=aa0cb60d
DTITLE=The Non Melting Ice Cream Band - The Welcome
DYEAR=2001
DGENRE=Jazz
TTITLE0=Free Reggae Hibop
TTITLE1=Halleluja
TTITLE2=I Mean You
TTITLE3=Picknick Mambo
TTITLE4=God Bless the Child
TTITLE5=The Welcome
TTITLE6=St. James Infirmary
TTITLE7=Caravan
TTITLE8=Mr. Postman
TTITLE9=How About This
TTITLE10=Lady Madonna
TTITLE11=Tico Tico
TTITLE12=Merel in de Jungle
EXTD=YEAR: 2001
EXTT0=
EXTT1=
EXTT2=
EXTT3=
EXTT4=
EXTT5=
EXTT6=
EXTT7=
EXTT8=
EXTT9=
EXTT10=
EXTT11=
EXTT12=
PLAYORDER=
